<?xml version="1.0" standalone="no"?>
 <!DOCTYPE svg PUBLIC "-//W3C//DTD SVG 1.1//EN" 
 "http://www.w3.org/Graphics/SVG/1.1/DTD/svg11.dtd"> 
<svg
  xmlns:svg="http://www.w3.org/2000/svg"
  xmlns="http://www.w3.org/2000/svg"
  xmlns:xlink="http://www.w3.org/1999/xlink"
  version="1.1"
  width="29.700220cm" height="21.000720cm" viewBox="0 0 116930 82680">
<title>SVG Picture created as POT_SWITCH-brd.svg date 2025/02/08 22:51:19 </title>
  <desc>Picture generated by PCBNEW </desc>
<g style="fill:#000000; fill-opacity:1;stroke:#000000; stroke-opacity:1;
stroke-linecap:round; stroke-linejoin:round;"
 transform="translate(0 0) scale(1 1)">
</g>
<g style="fill:#000000; fill-opacity:0.0; 
stroke:#000000; stroke-width:-0.000393701; stroke-opacity:1; 
stroke-linecap:round; stroke-linejoin:round;">
</g>
<g style="fill:#000000; fill-opacity:0.0; 
stroke:#000000; stroke-width:59.0551; stroke-opacity:1; 
stroke-linecap:round; stroke-linejoin:round;">
<text x="51897" y="56439.8"
textLength="3565.62" font-size="524.934" lengthAdjust="spacingAndGlyphs"
text-anchor="middle" opacity="0">27.305 mm</text>
<path d="M50266 56064
L50284 56046
L50322 56027
L50415 56027
L50453 56046
L50472 56064
L50490 56102
L50490 56139
L50472 56196
L50247 56421
L50490 56421
" />
<path d="M50622 56027
L50884 56027
L50715 56421
" />
<path d="M51034 56383
L51053 56402
L51034 56421
L51015 56402
L51034 56383
L51034 56421
" />
<path d="M51184 56027
L51428 56027
L51297 56177
L51353 56177
L51390 56196
L51409 56214
L51428 56252
L51428 56346
L51409 56383
L51390 56402
L51353 56421
L51240 56421
L51203 56402
L51184 56383
" />
<path d="M51672 56027
L51709 56027
L51747 56046
L51765 56064
L51784 56102
L51803 56177
L51803 56271
L51784 56346
L51765 56383
L51747 56402
L51709 56421
L51672 56421
L51634 56402
L51615 56383
L51597 56346
L51578 56271
L51578 56177
L51597 56102
L51615 56064
L51634 56046
L51672 56027
" />
<path d="M52159 56027
L51972 56027
L51953 56214
L51972 56196
L52009 56177
L52103 56177
L52140 56196
L52159 56214
L52178 56252
L52178 56346
L52159 56383
L52140 56402
L52103 56421
L52009 56421
L51972 56402
L51953 56383
" />
<path d="M52646 56421
L52646 56158
" />
<path d="M52646 56196
L52665 56177
L52703 56158
L52759 56158
L52796 56177
L52815 56214
L52815 56421
" />
<path d="M52815 56214
L52834 56177
L52871 56158
L52928 56158
L52965 56177
L52984 56214
L52984 56421
" />
<path d="M53171 56421
L53171 56158
" />
<path d="M53171 56196
L53190 56177
L53228 56158
L53284 56158
L53321 56177
L53340 56214
L53340 56421
" />
<path d="M53340 56214
L53359 56177
L53396 56158
L53453 56158
L53490 56177
L53509 56214
L53509 56421
" />
<path d="M46522 55731
L57272 55731
" />
<path d="M46522 51181
L46522 55961
" />
<path d="M57272 51181
L57272 55961
" />
<path d="M57272 55731
L56828 55961
" />
<path d="M57272 55731
L56828 55500
" />
<path d="M46522 55731
L46965 55961
" />
<path d="M46522 55731
L46965 55500
" />
<g transform="rotate(-359.78 63777.7 56217.1)">
<text x="63777.7" y="56413.9"
textLength="3488.85" font-size="524.934" lengthAdjust="spacingAndGlyphs"
text-anchor="middle" opacity="0">33.147 mm</text>
</g>
<path d="M62128 55995
L62372 55996
L62240 56145
L62296 56145
L62334 56164
L62352 56183
L62371 56221
L62371 56314
L62352 56352
L62333 56370
L62295 56389
L62183 56389
L62146 56370
L62127 56351
" />
<path d="M62503 55996
L62747 55997
L62615 56147
L62671 56147
L62709 56166
L62727 56184
L62746 56222
L62746 56316
L62727 56353
L62708 56372
L62670 56390
L62558 56390
L62520 56371
L62502 56352
" />
<path d="M62914 56354
L62933 56373
L62914 56391
L62895 56373
L62914 56354
L62914 56391
" />
<path d="M63308 56393
L63083 56392
" />
<path d="M63195 56392
L63197 55999
L63159 56055
L63121 56092
L63084 56111
" />
<path d="M63646 56132
L63645 56394
" />
<path d="M63553 55981
L63458 56262
L63702 56263
" />
<path d="M63815 56001
L64078 56002
L63908 56395
" />
<path d="M64526 56398
L64527 56135
" />
<path d="M64527 56173
L64546 56154
L64584 56135
L64640 56136
L64677 56154
L64696 56192
L64695 56398
" />
<path d="M64696 56192
L64715 56155
L64752 56136
L64809 56136
L64846 56155
L64865 56193
L64864 56399
" />
<path d="M65051 56400
L65052 56137
" />
<path d="M65052 56175
L65071 56156
L65109 56137
L65165 56138
L65202 56156
L65221 56194
L65220 56400
" />
<path d="M65221 56194
L65240 56157
L65277 56138
L65334 56138
L65371 56157
L65390 56195
L65389 56401
" />
<path d="M57254 55680
L70304 55730
" />
<path d="M57272 51131
L57253 55911
" />
<path d="M70322 51181
L70303 55961
" />
<path d="M70304 55730
L69860 55959
" />
<path d="M70304 55730
L69861 55497
" />
<path d="M57254 55680
L57697 55912
" />
<path d="M57254 55680
L57699 55451
" />
<g transform="rotate(-270 93622 50393.7)">
<text x="93622" y="50590.6"
textLength="3113.89" font-size="524.934" lengthAdjust="spacingAndGlyphs"
text-anchor="middle" opacity="0">4.000 mm</text>
</g>
<path d="M93706 49137
L93443 49137
" />
<path d="M93856 49043
L93575 48950
L93575 49193
" />
<path d="M93481 49343
L93462 49362
L93443 49343
L93462 49325
L93481 49343
L93443 49343
" />
<path d="M93837 49606
L93837 49643
L93818 49681
L93800 49700
L93762 49718
L93687 49737
L93593 49737
L93518 49718
L93481 49700
L93462 49681
L93443 49643
L93443 49606
L93462 49568
L93481 49550
L93518 49531
L93593 49512
L93687 49512
L93762 49531
L93800 49550
L93818 49568
L93837 49606
" />
<path d="M93837 49981
L93837 50018
L93818 50056
L93800 50074
L93762 50093
L93687 50112
L93593 50112
L93518 50093
L93481 50074
L93462 50056
L93443 50018
L93443 49981
L93462 49943
L93481 49925
L93518 49906
L93593 49887
L93687 49887
L93762 49906
L93800 49925
L93818 49943
L93837 49981
" />
<path d="M93837 50356
L93837 50393
L93818 50431
L93800 50449
L93762 50468
L93687 50487
L93593 50487
L93518 50468
L93481 50449
L93462 50431
L93443 50393
L93443 50356
L93462 50318
L93481 50299
L93518 50281
L93593 50262
L93687 50262
L93762 50281
L93800 50299
L93818 50318
L93837 50356
" />
<path d="M93443 50956
L93706 50956
" />
<path d="M93668 50956
L93687 50974
L93706 51012
L93706 51068
L93687 51106
L93650 51124
L93443 51124
" />
<path d="M93650 51124
L93687 51143
L93706 51181
L93706 51237
L93687 51274
L93650 51293
L93443 51293
" />
<path d="M93443 51481
L93706 51481
" />
<path d="M93668 51481
L93687 51499
L93706 51537
L93706 51593
L93687 51631
L93650 51649
L93443 51649
" />
<path d="M93650 51649
L93687 51668
L93706 51706
L93706 51762
L93687 51799
L93650 51818
L93443 51818
" />
<path d="M93110 49606
L93110 51181
" />
<path d="M89370 49606
L93341 49606
" />
<path d="M89370 51181
L93341 51181
" />
<path d="M93110 51181
L92879 50737
" />
<path d="M93110 51181
L93341 50737
" />
<path d="M93110 49606
L92879 50049
" />
<path d="M93110 49606
L93341 50049
" />
<g transform="rotate(-90 18189 50393.7)">
<text x="18189" y="50590.6"
textLength="3113.89" font-size="524.934" lengthAdjust="spacingAndGlyphs"
text-anchor="middle" opacity="0">4.000 mm</text>
</g>
<path d="M18104 51649
L18367 51649
" />
<path d="M17954 51743
L18235 51837
L18235 51593
" />
<path d="M18329 51443
L18348 51424
L18367 51443
L18348 51462
L18329 51443
L18367 51443
" />
<path d="M17973 51181
L17973 51143
L17992 51106
L18010 51087
L18048 51068
L18123 51049
L18217 51049
L18292 51068
L18329 51087
L18348 51106
L18367 51143
L18367 51181
L18348 51218
L18329 51237
L18292 51256
L18217 51274
L18123 51274
L18048 51256
L18010 51237
L17992 51218
L17973 51181
" />
<path d="M17973 50806
L17973 50768
L17992 50731
L18010 50712
L18048 50693
L18123 50674
L18217 50674
L18292 50693
L18329 50712
L18348 50731
L18367 50768
L18367 50806
L18348 50843
L18329 50862
L18292 50881
L18217 50899
L18123 50899
L18048 50881
L18010 50862
L17992 50843
L17973 50806
" />
<path d="M17973 50431
L17973 50393
L17992 50356
L18010 50337
L18048 50318
L18123 50299
L18217 50299
L18292 50318
L18329 50337
L18348 50356
L18367 50393
L18367 50431
L18348 50468
L18329 50487
L18292 50506
L18217 50524
L18123 50524
L18048 50506
L18010 50487
L17992 50468
L17973 50431
" />
<path d="M18367 49831
L18104 49831
" />
<path d="M18142 49831
L18123 49812
L18104 49775
L18104 49718
L18123 49681
L18160 49662
L18367 49662
" />
<path d="M18160 49662
L18123 49643
L18104 49606
L18104 49550
L18123 49512
L18160 49493
L18367 49493
" />
<path d="M18367 49306
L18104 49306
" />
<path d="M18142 49306
L18123 49287
L18104 49250
L18104 49193
L18123 49156
L18160 49137
L18367 49137
" />
<path d="M18160 49137
L18123 49118
L18104 49081
L18104 49025
L18123 48987
L18160 48968
L18367 48968
" />
<path d="M18700 51181
L18700 49606
" />
<path d="M23622 51181
L18469 51181
" />
<path d="M23622 49606
L18469 49606
" />
<path d="M18700 49606
L18931 50049
" />
<path d="M18700 49606
L18469 50049
" />
<path d="M18700 51181
L18931 50737
" />
<path d="M18700 51181
L18469 50737
" />
<g transform="rotate(-90 18189 20669.3)">
<text x="18189" y="20866.1"
textLength="3113.89" font-size="524.934" lengthAdjust="spacingAndGlyphs"
text-anchor="middle" opacity="0">5.000 mm</text>
</g>
<path d="M17973 21906
L17973 22094
L18160 22112
L18142 22094
L18123 22056
L18123 21962
L18142 21925
L18160 21906
L18198 21887
L18292 21887
L18329 21906
L18348 21925
L18367 21962
L18367 22056
L18348 22094
L18329 22112
" />
<path d="M18329 21719
L18348 21700
L18367 21719
L18348 21737
L18329 21719
L18367 21719
" />
<path d="M17973 21456
L17973 21419
L17992 21381
L18010 21362
L18048 21344
L18123 21325
L18217 21325
L18292 21344
L18329 21362
L18348 21381
L18367 21419
L18367 21456
L18348 21494
L18329 21512
L18292 21531
L18217 21550
L18123 21550
L18048 21531
L18010 21512
L17992 21494
L17973 21456
" />
<path d="M17973 21081
L17973 21044
L17992 21006
L18010 20988
L18048 20969
L18123 20950
L18217 20950
L18292 20969
L18329 20988
L18348 21006
L18367 21044
L18367 21081
L18348 21119
L18329 21137
L18292 21156
L18217 21175
L18123 21175
L18048 21156
L18010 21137
L17992 21119
L17973 21081
" />
<path d="M17973 20706
L17973 20669
L17992 20631
L18010 20613
L18048 20594
L18123 20575
L18217 20575
L18292 20594
L18329 20613
L18348 20631
L18367 20669
L18367 20706
L18348 20744
L18329 20763
L18292 20781
L18217 20800
L18123 20800
L18048 20781
L18010 20763
L17992 20744
L17973 20706
" />
<path d="M18367 20106
L18104 20106
" />
<path d="M18142 20106
L18123 20088
L18104 20050
L18104 19994
L18123 19956
L18160 19938
L18367 19938
" />
<path d="M18160 19938
L18123 19919
L18104 19881
L18104 19825
L18123 19788
L18160 19769
L18367 19769
" />
<path d="M18367 19581
L18104 19581
" />
<path d="M18142 19581
L18123 19563
L18104 19525
L18104 19469
L18123 19431
L18160 19413
L18367 19413
" />
<path d="M18160 19413
L18123 19394
L18104 19356
L18104 19300
L18123 19263
L18160 19244
L18367 19244
" />
<path d="M18700 21653
L18700 19685
" />
<path d="M23622 21653
L18469 21653
" />
<path d="M23622 19685
L18469 19685
" />
<path d="M18700 19685
L18931 20128
" />
<path d="M18700 19685
L18469 20128
" />
<path d="M18700 21653
L18931 21210
" />
<path d="M18700 21653
L18469 21210
" />
<g transform="rotate(-90 21732.3 30315)">
<text x="21732.3" y="30511.8"
textLength="3488.85" font-size="524.934" lengthAdjust="spacingAndGlyphs"
text-anchor="middle" opacity="0">54.000 mm</text>
</g>
<path d="M21516 31739
L21516 31927
L21704 31946
L21685 31927
L21666 31889
L21666 31796
L21685 31758
L21704 31739
L21741 31721
L21835 31721
L21872 31739
L21891 31758
L21910 31796
L21910 31889
L21891 31927
L21872 31946
" />
<path d="M21647 31383
L21910 31383
" />
<path d="M21497 31477
L21779 31571
L21779 31327
" />
<path d="M21872 31177
L21891 31158
L21910 31177
L21891 31196
L21872 31177
L21910 31177
" />
<path d="M21516 30914
L21516 30877
L21535 30839
L21554 30821
L21591 30802
L21666 30783
L21760 30783
L21835 30802
L21872 30821
L21891 30839
L21910 30877
L21910 30914
L21891 30952
L21872 30971
L21835 30989
L21760 31008
L21666 31008
L21591 30989
L21554 30971
L21535 30952
L21516 30914
" />
<path d="M21516 30539
L21516 30502
L21535 30464
L21554 30446
L21591 30427
L21666 30408
L21760 30408
L21835 30427
L21872 30446
L21891 30464
L21910 30502
L21910 30539
L21891 30577
L21872 30596
L21835 30614
L21760 30633
L21666 30633
L21591 30614
L21554 30596
L21535 30577
L21516 30539
" />
<path d="M21516 30164
L21516 30127
L21535 30089
L21554 30071
L21591 30052
L21666 30033
L21760 30033
L21835 30052
L21872 30071
L21891 30089
L21910 30127
L21910 30164
L21891 30202
L21872 30221
L21835 30239
L21760 30258
L21666 30258
L21591 30239
L21554 30221
L21535 30202
L21516 30164
" />
<path d="M21910 29565
L21647 29565
" />
<path d="M21685 29565
L21666 29546
L21647 29508
L21647 29452
L21666 29415
L21704 29396
L21910 29396
" />
<path d="M21704 29396
L21666 29377
L21647 29340
L21647 29283
L21666 29246
L21704 29227
L21910 29227
" />
<path d="M21910 29040
L21647 29040
" />
<path d="M21685 29040
L21666 29021
L21647 28983
L21647 28927
L21666 28890
L21704 28871
L21910 28871
" />
<path d="M21704 28871
L21666 28852
L21647 28815
L21647 28758
L21666 28721
L21704 28702
L21910 28702
" />
<path d="M22244 40944
L22244 19685
" />
<path d="M43700 40944
L22013 40944
" />
<path d="M43700 19685
L22013 19685
" />
<path d="M22244 19685
L22474 20128
" />
<path d="M22244 19685
L22013 20128
" />
<path d="M22244 40944
L22474 40501
" />
<path d="M22244 40944
L22013 40501
" />
<text x="77657.5" y="18976.4"
textLength="3488.85" font-size="524.934" lengthAdjust="spacingAndGlyphs"
text-anchor="middle" opacity="0">11.500 mm</text>
<path d="M76251 18957
L76026 18957
" />
<path d="M76138 18957
L76138 18563
L76101 18620
L76063 18657
L76026 18676
" />
<path d="M76626 18957
L76401 18957
" />
<path d="M76513 18957
L76513 18563
L76476 18620
L76438 18657
L76401 18676
" />
<path d="M76795 18920
L76813 18938
L76795 18957
L76776 18938
L76795 18920
L76795 18957
" />
<path d="M77170 18563
L76982 18563
L76963 18751
L76982 18732
L77020 18713
L77113 18713
L77151 18732
L77170 18751
L77188 18788
L77188 18882
L77170 18920
L77151 18938
L77113 18957
L77020 18957
L76982 18938
L76963 18920
" />
<path d="M77432 18563
L77470 18563
L77507 18582
L77526 18601
L77544 18638
L77563 18713
L77563 18807
L77544 18882
L77526 18920
L77507 18938
L77470 18957
L77432 18957
L77395 18938
L77376 18920
L77357 18882
L77338 18807
L77338 18713
L77357 18638
L77376 18601
L77395 18582
L77432 18563
" />
<path d="M77807 18563
L77844 18563
L77882 18582
L77901 18601
L77919 18638
L77938 18713
L77938 18807
L77919 18882
L77901 18920
L77882 18938
L77844 18957
L77807 18957
L77769 18938
L77751 18920
L77732 18882
L77713 18807
L77713 18713
L77732 18638
L77751 18601
L77769 18582
L77807 18563
" />
<path d="M78407 18957
L78407 18695
" />
<path d="M78407 18732
L78426 18713
L78463 18695
L78519 18695
L78557 18713
L78576 18751
L78576 18957
" />
<path d="M78576 18751
L78594 18713
L78632 18695
L78688 18695
L78726 18713
L78744 18751
L78744 18957
" />
<path d="M78932 18957
L78932 18695
" />
<path d="M78932 18732
L78951 18713
L78988 18695
L79044 18695
L79082 18713
L79101 18751
L79101 18957
" />
<path d="M79101 18751
L79119 18713
L79157 18695
L79213 18695
L79251 18713
L79269 18751
L79269 18957
" />
<path d="M75393 19291
L79921 19291
" />
<path d="M75393 32677
L75393 19060
" />
<path d="M79921 32677
L79921 19060
" />
<path d="M79921 19291
L79477 19522
" />
<path d="M79921 19291
L79477 19060
" />
<path d="M75393 19291
L75837 19522
" />
<path d="M75393 19291
L75837 19060
" />
<text x="68602.4" y="18976.4"
textLength="3488.85" font-size="524.934" lengthAdjust="spacingAndGlyphs"
text-anchor="middle" opacity="0">11.500 mm</text>
<path d="M67196 18957
L66971 18957
" />
<path d="M67083 18957
L67083 18563
L67046 18620
L67008 18657
L66971 18676
" />
<path d="M67571 18957
L67346 18957
" />
<path d="M67458 18957
L67458 18563
L67421 18620
L67383 18657
L67346 18676
" />
<path d="M67739 18920
L67758 18938
L67739 18957
L67721 18938
L67739 18920
L67739 18957
" />
<path d="M68114 18563
L67927 18563
L67908 18751
L67927 18732
L67964 18713
L68058 18713
L68096 18732
L68114 18751
L68133 18788
L68133 18882
L68114 18920
L68096 18938
L68058 18957
L67964 18957
L67927 18938
L67908 18920
" />
<path d="M68377 18563
L68414 18563
L68452 18582
L68471 18601
L68489 18638
L68508 18713
L68508 18807
L68489 18882
L68471 18920
L68452 18938
L68414 18957
L68377 18957
L68339 18938
L68321 18920
L68302 18882
L68283 18807
L68283 18713
L68302 18638
L68321 18601
L68339 18582
L68377 18563
" />
<path d="M68752 18563
L68789 18563
L68827 18582
L68846 18601
L68864 18638
L68883 18713
L68883 18807
L68864 18882
L68846 18920
L68827 18938
L68789 18957
L68752 18957
L68714 18938
L68696 18920
L68677 18882
L68658 18807
L68658 18713
L68677 18638
L68696 18601
L68714 18582
L68752 18563
" />
<path d="M69352 18957
L69352 18695
" />
<path d="M69352 18732
L69371 18713
L69408 18695
L69464 18695
L69502 18713
L69520 18751
L69520 18957
" />
<path d="M69520 18751
L69539 18713
L69577 18695
L69633 18695
L69670 18713
L69689 18751
L69689 18957
" />
<path d="M69877 18957
L69877 18695
" />
<path d="M69877 18732
L69895 18713
L69933 18695
L69989 18695
L70027 18713
L70045 18751
L70045 18957
" />
<path d="M70045 18751
L70064 18713
L70102 18695
L70158 18695
L70195 18713
L70214 18751
L70214 18957
" />
<path d="M66338 19291
L70866 19291
" />
<path d="M66338 32677
L66338 19060
" />
<path d="M70866 32677
L70866 19060
" />
<path d="M70866 19291
L70422 19522
" />
<path d="M70866 19291
L70422 19060
" />
<path d="M66338 19291
L66782 19522
" />
<path d="M66338 19291
L66782 19060
" />
<text x="59547.2" y="18976.4"
textLength="3488.85" font-size="524.934" lengthAdjust="spacingAndGlyphs"
text-anchor="middle" opacity="0">11.500 mm</text>
<path d="M58141 18957
L57916 18957
" />
<path d="M58028 18957
L58028 18563
L57991 18620
L57953 18657
L57916 18676
" />
<path d="M58516 18957
L58291 18957
" />
<path d="M58403 18957
L58403 18563
L58366 18620
L58328 18657
L58291 18676
" />
<path d="M58684 18920
L58703 18938
L58684 18957
L58666 18938
L58684 18920
L58684 18957
" />
<path d="M59059 18563
L58872 18563
L58853 18751
L58872 18732
L58909 18713
L59003 18713
L59041 18732
L59059 18751
L59078 18788
L59078 18882
L59059 18920
L59041 18938
L59003 18957
L58909 18957
L58872 18938
L58853 18920
" />
<path d="M59322 18563
L59359 18563
L59397 18582
L59416 18601
L59434 18638
L59453 18713
L59453 18807
L59434 18882
L59416 18920
L59397 18938
L59359 18957
L59322 18957
L59284 18938
L59266 18920
L59247 18882
L59228 18807
L59228 18713
L59247 18638
L59266 18601
L59284 18582
L59322 18563
" />
<path d="M59697 18563
L59734 18563
L59772 18582
L59790 18601
L59809 18638
L59828 18713
L59828 18807
L59809 18882
L59790 18920
L59772 18938
L59734 18957
L59697 18957
L59659 18938
L59640 18920
L59622 18882
L59603 18807
L59603 18713
L59622 18638
L59640 18601
L59659 18582
L59697 18563
" />
<path d="M60297 18957
L60297 18695
" />
<path d="M60297 18732
L60315 18713
L60353 18695
L60409 18695
L60447 18713
L60465 18751
L60465 18957
" />
<path d="M60465 18751
L60484 18713
L60522 18695
L60578 18695
L60615 18713
L60634 18751
L60634 18957
" />
<path d="M60822 18957
L60822 18695
" />
<path d="M60822 18732
L60840 18713
L60878 18695
L60934 18695
L60972 18713
L60990 18751
L60990 18957
" />
<path d="M60990 18751
L61009 18713
L61047 18695
L61103 18695
L61140 18713
L61159 18751
L61159 18957
" />
<path d="M57283 19291
L61811 19291
" />
<path d="M57283 32677
L57283 19060
" />
<path d="M61811 32677
L61811 19060
" />
<path d="M61811 19291
L61367 19522
" />
<path d="M61811 19291
L61367 19060
" />
<path d="M57283 19291
L57726 19522
" />
<path d="M57283 19291
L57726 19060
" />
<text x="50492.1" y="18976.4"
textLength="3488.85" font-size="524.934" lengthAdjust="spacingAndGlyphs"
text-anchor="middle" opacity="0">11.500 mm</text>
<path d="M49086 18957
L48861 18957
" />
<path d="M48973 18957
L48973 18563
L48936 18620
L48898 18657
L48861 18676
" />
<path d="M49461 18957
L49236 18957
" />
<path d="M49348 18957
L49348 18563
L49311 18620
L49273 18657
L49236 18676
" />
<path d="M49629 18920
L49648 18938
L49629 18957
L49610 18938
L49629 18920
L49629 18957
" />
<path d="M50004 18563
L49817 18563
L49798 18751
L49817 18732
L49854 18713
L49948 18713
L49985 18732
L50004 18751
L50023 18788
L50023 18882
L50004 18920
L49985 18938
L49948 18957
L49854 18957
L49817 18938
L49798 18920
" />
<path d="M50267 18563
L50304 18563
L50342 18582
L50360 18601
L50379 18638
L50398 18713
L50398 18807
L50379 18882
L50360 18920
L50342 18938
L50304 18957
L50267 18957
L50229 18938
L50210 18920
L50192 18882
L50173 18807
L50173 18713
L50192 18638
L50210 18601
L50229 18582
L50267 18563
" />
<path d="M50642 18563
L50679 18563
L50717 18582
L50735 18601
L50754 18638
L50773 18713
L50773 18807
L50754 18882
L50735 18920
L50717 18938
L50679 18957
L50642 18957
L50604 18938
L50585 18920
L50567 18882
L50548 18807
L50548 18713
L50567 18638
L50585 18601
L50604 18582
L50642 18563
" />
<path d="M51242 18957
L51242 18695
" />
<path d="M51242 18732
L51260 18713
L51298 18695
L51354 18695
L51392 18713
L51410 18751
L51410 18957
" />
<path d="M51410 18751
L51429 18713
L51467 18695
L51523 18695
L51560 18713
L51579 18751
L51579 18957
" />
<path d="M51766 18957
L51766 18695
" />
<path d="M51766 18732
L51785 18713
L51823 18695
L51879 18695
L51916 18713
L51935 18751
L51935 18957
" />
<path d="M51935 18751
L51954 18713
L51991 18695
L52048 18695
L52085 18713
L52104 18751
L52104 18957
" />
<path d="M48228 19291
L52755 19291
" />
<path d="M48228 32677
L48228 19060
" />
<path d="M52755 32677
L52755 19060
" />
<path d="M52755 19291
L52312 19522
" />
<path d="M52755 19291
L52312 19060
" />
<path d="M48228 19291
L48671 19522
" />
<path d="M48228 19291
L48671 19060
" />
<text x="32381.9" y="18976.4"
textLength="3488.85" font-size="524.934" lengthAdjust="spacingAndGlyphs"
text-anchor="middle" opacity="0">11.500 mm</text>
<path d="M30975 18957
L30750 18957
" />
<path d="M30863 18957
L30863 18563
L30825 18620
L30788 18657
L30750 18676
" />
<path d="M31350 18957
L31125 18957
" />
<path d="M31238 18957
L31238 18563
L31200 18620
L31163 18657
L31125 18676
" />
<path d="M31519 18920
L31538 18938
L31519 18957
L31500 18938
L31519 18920
L31519 18957
" />
<path d="M31894 18563
L31706 18563
L31688 18751
L31706 18732
L31744 18713
L31838 18713
L31875 18732
L31894 18751
L31913 18788
L31913 18882
L31894 18920
L31875 18938
L31838 18957
L31744 18957
L31706 18938
L31688 18920
" />
<path d="M32156 18563
L32194 18563
L32231 18582
L32250 18601
L32269 18638
L32288 18713
L32288 18807
L32269 18882
L32250 18920
L32231 18938
L32194 18957
L32156 18957
L32119 18938
L32100 18920
L32081 18882
L32063 18807
L32063 18713
L32081 18638
L32100 18601
L32119 18582
L32156 18563
" />
<path d="M32531 18563
L32569 18563
L32606 18582
L32625 18601
L32644 18638
L32663 18713
L32663 18807
L32644 18882
L32625 18920
L32606 18938
L32569 18957
L32531 18957
L32494 18938
L32475 18920
L32456 18882
L32438 18807
L32438 18713
L32456 18638
L32475 18601
L32494 18582
L32531 18563
" />
<path d="M33131 18957
L33131 18695
" />
<path d="M33131 18732
L33150 18713
L33188 18695
L33244 18695
L33281 18713
L33300 18751
L33300 18957
" />
<path d="M33300 18751
L33319 18713
L33356 18695
L33413 18695
L33450 18713
L33469 18751
L33469 18957
" />
<path d="M33656 18957
L33656 18695
" />
<path d="M33656 18732
L33675 18713
L33712 18695
L33769 18695
L33806 18713
L33825 18751
L33825 18957
" />
<path d="M33825 18751
L33844 18713
L33881 18695
L33937 18695
L33975 18713
L33994 18751
L33994 18957
" />
<path d="M30118 19291
L34645 19291
" />
<path d="M30118 32677
L30118 19060
" />
<path d="M34645 32677
L34645 19060
" />
<path d="M34645 19291
L34202 19522
" />
<path d="M34645 19291
L34202 19060
" />
<path d="M30118 19291
L30561 19522
" />
<path d="M30118 19291
L30561 19060
" />
<g transform="rotate(-270 93110.2 29645.7)">
<text x="93110.2" y="29842.5"
textLength="3488.85" font-size="524.934" lengthAdjust="spacingAndGlyphs"
text-anchor="middle" opacity="0">15.000 mm</text>
</g>
<path d="M92932 28239
L92932 28014
" />
<path d="M92932 28127
L93325 28127
L93269 28089
L93232 28052
L93213 28014
" />
<path d="M93325 28595
L93325 28408
L93138 28389
L93157 28408
L93175 28445
L93175 28539
L93157 28577
L93138 28595
L93100 28614
L93007 28614
L92969 28595
L92950 28577
L92932 28539
L92932 28445
L92950 28408
L92969 28389
" />
<path d="M92969 28783
L92950 28802
L92932 28783
L92950 28764
L92969 28783
L92932 28783
" />
<path d="M93325 29045
L93325 29083
L93307 29120
L93288 29139
L93250 29158
L93175 29176
L93082 29176
L93007 29158
L92969 29139
L92950 29120
L92932 29083
L92932 29045
L92950 29008
L92969 28989
L93007 28970
L93082 28952
L93175 28952
L93250 28970
L93288 28989
L93307 29008
L93325 29045
" />
<path d="M93325 29420
L93325 29458
L93307 29495
L93288 29514
L93250 29533
L93175 29551
L93082 29551
L93007 29533
L92969 29514
L92950 29495
L92932 29458
L92932 29420
L92950 29383
L92969 29364
L93007 29345
L93082 29326
L93175 29326
L93250 29345
L93288 29364
L93307 29383
L93325 29420
" />
<path d="M93325 29795
L93325 29833
L93307 29870
L93288 29889
L93250 29908
L93175 29926
L93082 29926
L93007 29908
L92969 29889
L92950 29870
L92932 29833
L92932 29795
L92950 29758
L92969 29739
L93007 29720
L93082 29701
L93175 29701
L93250 29720
L93288 29739
L93307 29758
L93325 29795
" />
<path d="M92932 30395
L93194 30395
" />
<path d="M93157 30395
L93175 30414
L93194 30451
L93194 30508
L93175 30545
L93138 30564
L92932 30564
" />
<path d="M93138 30564
L93175 30583
L93194 30620
L93194 30676
L93175 30714
L93138 30733
L92932 30733
" />
<path d="M92932 30920
L93194 30920
" />
<path d="M93157 30920
L93175 30939
L93194 30976
L93194 31032
L93175 31070
L93138 31089
L92932 31089
" />
<path d="M93138 31089
L93175 31107
L93194 31145
L93194 31201
L93175 31239
L93138 31257
L92932 31257
" />
<path d="M92598 26692
L92598 32598
" />
<path d="M25472 26692
L92829 26692
" />
<path d="M25472 32598
L92829 32598
" />
<path d="M92598 32598
L92367 32154
" />
<path d="M92598 32598
L92829 32154
" />
<path d="M92598 26692
L92367 27136
" />
<path d="M92598 26692
L92829 27136
" />
<g transform="rotate(-270 93622 44094.5)">
<text x="93622" y="44291.3"
textLength="3488.85" font-size="524.934" lengthAdjust="spacingAndGlyphs"
text-anchor="middle" opacity="0">28.000 mm</text>
</g>
<path d="M93800 42463
L93818 42482
L93837 42519
L93837 42613
L93818 42650
L93800 42669
L93762 42688
L93725 42688
L93668 42669
L93443 42444
L93443 42688
" />
<path d="M93668 42913
L93687 42875
L93706 42857
L93743 42838
L93762 42838
L93800 42857
L93818 42875
L93837 42913
L93837 42988
L93818 43025
L93800 43044
L93762 43063
L93743 43063
L93706 43044
L93687 43025
L93668 42988
L93668 42913
L93650 42875
L93631 42857
L93593 42838
L93518 42838
L93481 42857
L93462 42875
L93443 42913
L93443 42988
L93462 43025
L93481 43044
L93518 43063
L93593 43063
L93631 43044
L93650 43025
L93668 42988
" />
<path d="M93481 43232
L93462 43250
L93443 43232
L93462 43213
L93481 43232
L93443 43232
" />
<path d="M93837 43494
L93837 43532
L93818 43569
L93800 43588
L93762 43607
L93687 43625
L93593 43625
L93518 43607
L93481 43588
L93462 43569
L93443 43532
L93443 43494
L93462 43457
L93481 43438
L93518 43419
L93593 43400
L93687 43400
L93762 43419
L93800 43438
L93818 43457
L93837 43494
" />
<path d="M93837 43869
L93837 43907
L93818 43944
L93800 43963
L93762 43982
L93687 44000
L93593 44000
L93518 43982
L93481 43963
L93462 43944
L93443 43907
L93443 43869
L93462 43832
L93481 43813
L93518 43794
L93593 43775
L93687 43775
L93762 43794
L93800 43813
L93818 43832
L93837 43869
" />
<path d="M93837 44244
L93837 44281
L93818 44319
L93800 44338
L93762 44356
L93687 44375
L93593 44375
L93518 44356
L93481 44338
L93462 44319
L93443 44281
L93443 44244
L93462 44206
L93481 44188
L93518 44169
L93593 44150
L93687 44150
L93762 44169
L93800 44188
L93818 44206
L93837 44244
" />
<path d="M93443 44844
L93706 44844
" />
<path d="M93668 44844
L93687 44863
L93706 44900
L93706 44956
L93687 44994
L93650 45013
L93443 45013
" />
<path d="M93650 45013
L93687 45031
L93706 45069
L93706 45125
L93687 45163
L93650 45181
L93443 45181
" />
<path d="M93443 45369
L93706 45369
" />
<path d="M93668 45369
L93687 45388
L93706 45425
L93706 45481
L93687 45519
L93650 45538
L93443 45538
" />
<path d="M93650 45538
L93687 45556
L93706 45594
L93706 45650
L93687 45688
L93650 45706
L93443 45706
" />
<path d="M93110 38582
L93110 49606
" />
<path d="M29527 38582
L93341 38582
" />
<path d="M29527 49606
L93341 49606
" />
<path d="M93110 49606
L92879 49162
" />
<path d="M93110 49606
L93341 49162
" />
<path d="M93110 38582
L92879 39026
" />
<path d="M93110 38582
L93341 39026
" />
<text x="86122" y="58089.8"
textLength="3488.85" font-size="524.934" lengthAdjust="spacingAndGlyphs"
text-anchor="middle" opacity="0">24.500 mm</text>
<path d="M84491 57714
L84509 57696
L84547 57677
L84640 57677
L84678 57696
L84697 57714
L84715 57752
L84715 57789
L84697 57846
L84472 58071
L84715 58071
" />
<path d="M85053 57808
L85053 58071
" />
<path d="M84959 57658
L84865 57939
L85109 57939
" />
<path d="M85259 58033
L85278 58052
L85259 58071
L85240 58052
L85259 58033
L85259 58071
" />
<path d="M85634 57677
L85447 57677
L85428 57864
L85447 57846
L85484 57827
L85578 57827
L85615 57846
L85634 57864
L85653 57902
L85653 57996
L85634 58033
L85615 58052
L85578 58071
L85484 58071
L85447 58052
L85428 58033
" />
<path d="M85897 57677
L85934 57677
L85972 57696
L85990 57714
L86009 57752
L86028 57827
L86028 57921
L86009 57996
L85990 58033
L85972 58052
L85934 58071
L85897 58071
L85859 58052
L85840 58033
L85822 57996
L85803 57921
L85803 57827
L85822 57752
L85840 57714
L85859 57696
L85897 57677
" />
<path d="M86272 57677
L86309 57677
L86347 57696
L86365 57714
L86384 57752
L86403 57827
L86403 57921
L86384 57996
L86365 58033
L86347 58052
L86309 58071
L86272 58071
L86234 58052
L86215 58033
L86197 57996
L86178 57921
L86178 57827
L86197 57752
L86215 57714
L86234 57696
L86272 57677
" />
<path d="M86871 58071
L86871 57808
" />
<path d="M86871 57846
L86890 57827
L86928 57808
L86984 57808
L87021 57827
L87040 57864
L87040 58071
" />
<path d="M87040 57864
L87059 57827
L87096 57808
L87153 57808
L87190 57827
L87209 57864
L87209 58071
" />
<path d="M87396 58071
L87396 57808
" />
<path d="M87396 57846
L87415 57827
L87453 57808
L87509 57808
L87546 57827
L87565 57864
L87565 58071
" />
<path d="M87565 57864
L87584 57827
L87621 57808
L87678 57808
L87715 57827
L87734 57864
L87734 58071
" />
<path d="M81299 57381
L90944 57381
" />
<path d="M81299 51181
L81299 57611
" />
<path d="M90944 51181
L90944 57611
" />
<path d="M90944 57381
L90501 57611
" />
<path d="M90944 57381
L90501 57150
" />
<path d="M81299 57381
L81742 57611
" />
<path d="M81299 57381
L81742 57150
" />
<text x="69291.3" y="58089.8"
textLength="3488.85" font-size="524.934" lengthAdjust="spacingAndGlyphs"
text-anchor="middle" opacity="0">61.000 mm</text>
<path d="M67847 57677
L67772 57677
L67735 57696
L67716 57714
L67679 57771
L67660 57846
L67660 57996
L67679 58033
L67697 58052
L67735 58071
L67810 58071
L67847 58052
L67866 58033
L67885 57996
L67885 57902
L67866 57864
L67847 57846
L67810 57827
L67735 57827
L67697 57846
L67679 57864
L67660 57902
" />
<path d="M68260 58071
L68035 58071
" />
<path d="M68147 58071
L68147 57677
L68110 57733
L68072 57771
L68035 57789
" />
<path d="M68428 58033
L68447 58052
L68428 58071
L68410 58052
L68428 58033
L68428 58071
" />
<path d="M68691 57677
L68728 57677
L68766 57696
L68785 57714
L68803 57752
L68822 57827
L68822 57921
L68803 57996
L68785 58033
L68766 58052
L68728 58071
L68691 58071
L68653 58052
L68635 58033
L68616 57996
L68597 57921
L68597 57827
L68616 57752
L68635 57714
L68653 57696
L68691 57677
" />
<path d="M69066 57677
L69103 57677
L69141 57696
L69160 57714
L69178 57752
L69197 57827
L69197 57921
L69178 57996
L69160 58033
L69141 58052
L69103 58071
L69066 58071
L69028 58052
L69010 58033
L68991 57996
L68972 57921
L68972 57827
L68991 57752
L69010 57714
L69028 57696
L69066 57677
" />
<path d="M69441 57677
L69478 57677
L69516 57696
L69535 57714
L69553 57752
L69572 57827
L69572 57921
L69553 57996
L69535 58033
L69516 58052
L69478 58071
L69441 58071
L69403 58052
L69385 58033
L69366 57996
L69347 57921
L69347 57827
L69366 57752
L69385 57714
L69403 57696
L69441 57677
" />
<path d="M70041 58071
L70041 57808
" />
<path d="M70041 57846
L70059 57827
L70097 57808
L70153 57808
L70191 57827
L70209 57864
L70209 58071
" />
<path d="M70209 57864
L70228 57827
L70266 57808
L70322 57808
L70359 57827
L70378 57864
L70378 58071
" />
<path d="M70566 58071
L70566 57808
" />
<path d="M70566 57846
L70584 57827
L70622 57808
L70678 57808
L70716 57827
L70734 57864
L70734 58071
" />
<path d="M70734 57864
L70753 57827
L70791 57808
L70847 57808
L70884 57827
L70903 57864
L70903 58071
" />
<path d="M57283 57381
L81299 57381
" />
<path d="M57283 49212
L57283 57611
" />
<path d="M81299 49212
L81299 57611
" />
<path d="M81299 57381
L80855 57611
" />
<path d="M81299 57381
L80855 57150
" />
<path d="M57283 57381
L57726 57611
" />
<path d="M57283 57381
L57726 57150
" />
<text x="28444.9" y="58089.8"
textLength="3488.85" font-size="524.934" lengthAdjust="spacingAndGlyphs"
text-anchor="middle" opacity="0">24.500 mm</text>
<path d="M26813 57714
L26832 57696
L26870 57677
L26963 57677
L27001 57696
L27020 57714
L27038 57752
L27038 57789
L27020 57846
L26795 58071
L27038 58071
" />
<path d="M27376 57808
L27376 58071
" />
<path d="M27282 57658
L27188 57939
L27432 57939
" />
<path d="M27582 58033
L27601 58052
L27582 58071
L27563 58052
L27582 58033
L27582 58071
" />
<path d="M27957 57677
L27769 57677
L27751 57864
L27769 57846
L27807 57827
L27901 57827
L27938 57846
L27957 57864
L27976 57902
L27976 57996
L27957 58033
L27938 58052
L27901 58071
L27807 58071
L27769 58052
L27751 58033
" />
<path d="M28219 57677
L28257 57677
L28294 57696
L28313 57714
L28332 57752
L28351 57827
L28351 57921
L28332 57996
L28313 58033
L28294 58052
L28257 58071
L28219 58071
L28182 58052
L28163 58033
L28144 57996
L28126 57921
L28126 57827
L28144 57752
L28163 57714
L28182 57696
L28219 57677
" />
<path d="M28594 57677
L28632 57677
L28669 57696
L28688 57714
L28707 57752
L28726 57827
L28726 57921
L28707 57996
L28688 58033
L28669 58052
L28632 58071
L28594 58071
L28557 58052
L28538 58033
L28519 57996
L28501 57921
L28501 57827
L28519 57752
L28538 57714
L28557 57696
L28594 57677
" />
<path d="M29194 58071
L29194 57808
" />
<path d="M29194 57846
L29213 57827
L29251 57808
L29307 57808
L29344 57827
L29363 57864
L29363 58071
" />
<path d="M29363 57864
L29382 57827
L29419 57808
L29476 57808
L29513 57827
L29532 57864
L29532 58071
" />
<path d="M29719 58071
L29719 57808
" />
<path d="M29719 57846
L29738 57827
L29775 57808
L29832 57808
L29869 57827
L29888 57864
L29888 58071
" />
<path d="M29888 57864
L29907 57827
L29944 57808
L30000 57808
L30038 57827
L30057 57864
L30057 58071
" />
<path d="M23622 57381
L33267 57381
" />
<path d="M23622 49212
L23622 57611
" />
<path d="M33267 49212
L33267 57611
" />
<path d="M33267 57381
L32824 57611
" />
<path d="M33267 57381
L32824 57150
" />
<path d="M23622 57381
L24065 57611
" />
<path d="M23622 57381
L24065 57150
" />
<text x="45275.6" y="58089.8"
textLength="3488.85" font-size="524.934" lengthAdjust="spacingAndGlyphs"
text-anchor="middle" opacity="0">61.000 mm</text>
<path d="M43832 57677
L43757 57677
L43719 57696
L43700 57714
L43663 57771
L43644 57846
L43644 57996
L43663 58033
L43682 58052
L43719 58071
L43794 58071
L43832 58052
L43850 58033
L43869 57996
L43869 57902
L43850 57864
L43832 57846
L43794 57827
L43719 57827
L43682 57846
L43663 57864
L43644 57902
" />
<path d="M44244 58071
L44019 58071
" />
<path d="M44131 58071
L44131 57677
L44094 57733
L44056 57771
L44019 57789
" />
<path d="M44413 58033
L44431 58052
L44413 58071
L44394 58052
L44413 58033
L44413 58071
" />
<path d="M44675 57677
L44713 57677
L44750 57696
L44769 57714
L44788 57752
L44806 57827
L44806 57921
L44788 57996
L44769 58033
L44750 58052
L44713 58071
L44675 58071
L44638 58052
L44619 58033
L44600 57996
L44581 57921
L44581 57827
L44600 57752
L44619 57714
L44638 57696
L44675 57677
" />
<path d="M45050 57677
L45088 57677
L45125 57696
L45144 57714
L45163 57752
L45181 57827
L45181 57921
L45163 57996
L45144 58033
L45125 58052
L45088 58071
L45050 58071
L45013 58052
L44994 58033
L44975 57996
L44956 57921
L44956 57827
L44975 57752
L44994 57714
L45013 57696
L45050 57677
" />
<path d="M45425 57677
L45463 57677
L45500 57696
L45519 57714
L45538 57752
L45556 57827
L45556 57921
L45538 57996
L45519 58033
L45500 58052
L45463 58071
L45425 58071
L45388 58052
L45369 58033
L45350 57996
L45331 57921
L45331 57827
L45350 57752
L45369 57714
L45388 57696
L45425 57677
" />
<path d="M46025 58071
L46025 57808
" />
<path d="M46025 57846
L46044 57827
L46081 57808
L46137 57808
L46175 57827
L46194 57864
L46194 58071
" />
<path d="M46194 57864
L46212 57827
L46250 57808
L46306 57808
L46344 57827
L46362 57864
L46362 58071
" />
<path d="M46550 58071
L46550 57808
" />
<path d="M46550 57846
L46569 57827
L46606 57808
L46662 57808
L46700 57827
L46719 57864
L46719 58071
" />
<path d="M46719 57864
L46737 57827
L46775 57808
L46831 57808
L46869 57827
L46887 57864
L46887 58071
" />
<path d="M33267 57381
L57283 57381
" />
<path d="M33267 49212
L33267 57611
" />
<path d="M57283 49212
L57283 57611
" />
<path d="M57283 57381
L56839 57611
" />
<path d="M57283 57381
L56839 57150
" />
<path d="M33267 57381
L33711 57611
" />
<path d="M33267 57381
L33711 57150
" />
<text x="57283.5" y="61338.6"
textLength="3863.8" font-size="524.934" lengthAdjust="spacingAndGlyphs"
text-anchor="middle" opacity="0">171.000 mm</text>
<path d="M55689 61319
L55464 61319
" />
<path d="M55577 61319
L55577 60926
L55539 60982
L55502 61019
L55464 61038
" />
<path d="M55821 60926
L56083 60926
L55914 61319
" />
<path d="M56439 61319
L56214 61319
" />
<path d="M56327 61319
L56327 60926
L56289 60982
L56252 61019
L56214 61038
" />
<path d="M56608 61282
L56627 61301
L56608 61319
L56589 61301
L56608 61282
L56608 61319
" />
<path d="M56871 60926
L56908 60926
L56946 60944
L56964 60963
L56983 61001
L57002 61076
L57002 61169
L56983 61244
L56964 61282
L56946 61301
L56908 61319
L56871 61319
L56833 61301
L56814 61282
L56796 61244
L56777 61169
L56777 61076
L56796 61001
L56814 60963
L56833 60944
L56871 60926
" />
<path d="M57245 60926
L57283 60926
L57320 60944
L57339 60963
L57358 61001
L57377 61076
L57377 61169
L57358 61244
L57339 61282
L57320 61301
L57283 61319
L57245 61319
L57208 61301
L57189 61282
L57170 61244
L57152 61169
L57152 61076
L57170 61001
L57189 60963
L57208 60944
L57245 60926
" />
<path d="M57620 60926
L57658 60926
L57695 60944
L57714 60963
L57733 61001
L57752 61076
L57752 61169
L57733 61244
L57714 61282
L57695 61301
L57658 61319
L57620 61319
L57583 61301
L57564 61282
L57545 61244
L57527 61169
L57527 61076
L57545 61001
L57564 60963
L57583 60944
L57620 60926
" />
<path d="M58220 61319
L58220 61057
" />
<path d="M58220 61094
L58239 61076
L58277 61057
L58333 61057
L58370 61076
L58389 61113
L58389 61319
" />
<path d="M58389 61113
L58408 61076
L58445 61057
L58502 61057
L58539 61076
L58558 61113
L58558 61319
" />
<path d="M58745 61319
L58745 61057
" />
<path d="M58745 61094
L58764 61076
L58802 61057
L58858 61057
L58895 61076
L58914 61113
L58914 61319
" />
<path d="M58914 61113
L58933 61076
L58970 61057
L59026 61057
L59064 61076
L59083 61113
L59083 61319
" />
<path d="M23622 60629
L90944 60629
" />
<path d="M23622 49212
L23622 60860
" />
<path d="M90944 49212
L90944 60860
" />
<path d="M90944 60629
L90501 60860
" />
<path d="M90944 60629
L90501 60399
" />
<path d="M23622 60629
L24065 60860
" />
<path d="M23622 60629
L24065 60399
" />
<text x="57283.5" y="59960.6"
textLength="3863.8" font-size="524.934" lengthAdjust="spacingAndGlyphs"
text-anchor="middle" opacity="0">163.000 mm</text>
<path d="M55689 59941
L55464 59941
" />
<path d="M55577 59941
L55577 59548
L55539 59604
L55502 59641
L55464 59660
" />
<path d="M56027 59548
L55952 59548
L55914 59566
L55896 59585
L55858 59641
L55839 59716
L55839 59866
L55858 59904
L55877 59923
L55914 59941
L55989 59941
L56027 59923
L56046 59904
L56064 59866
L56064 59773
L56046 59735
L56027 59716
L55989 59698
L55914 59698
L55877 59716
L55858 59735
L55839 59773
" />
<path d="M56196 59548
L56439 59548
L56308 59698
L56364 59698
L56402 59716
L56421 59735
L56439 59773
L56439 59866
L56421 59904
L56402 59923
L56364 59941
L56252 59941
L56214 59923
L56196 59904
" />
<path d="M56608 59904
L56627 59923
L56608 59941
L56589 59923
L56608 59904
L56608 59941
" />
<path d="M56871 59548
L56908 59548
L56946 59566
L56964 59585
L56983 59623
L57002 59698
L57002 59791
L56983 59866
L56964 59904
L56946 59923
L56908 59941
L56871 59941
L56833 59923
L56814 59904
L56796 59866
L56777 59791
L56777 59698
L56796 59623
L56814 59585
L56833 59566
L56871 59548
" />
<path d="M57245 59548
L57283 59548
L57320 59566
L57339 59585
L57358 59623
L57377 59698
L57377 59791
L57358 59866
L57339 59904
L57320 59923
L57283 59941
L57245 59941
L57208 59923
L57189 59904
L57170 59866
L57152 59791
L57152 59698
L57170 59623
L57189 59585
L57208 59566
L57245 59548
" />
<path d="M57620 59548
L57658 59548
L57695 59566
L57714 59585
L57733 59623
L57752 59698
L57752 59791
L57733 59866
L57714 59904
L57695 59923
L57658 59941
L57620 59941
L57583 59923
L57564 59904
L57545 59866
L57527 59791
L57527 59698
L57545 59623
L57564 59585
L57583 59566
L57620 59548
" />
<path d="M58220 59941
L58220 59679
" />
<path d="M58220 59716
L58239 59698
L58277 59679
L58333 59679
L58370 59698
L58389 59735
L58389 59941
" />
<path d="M58389 59735
L58408 59698
L58445 59679
L58502 59679
L58539 59698
L58558 59735
L58558 59941
" />
<path d="M58745 59941
L58745 59679
" />
<path d="M58745 59716
L58764 59698
L58802 59679
L58858 59679
L58895 59698
L58914 59735
L58914 59941
" />
<path d="M58914 59735
L58933 59698
L58970 59679
L59026 59679
L59064 59698
L59083 59735
L59083 59941
" />
<path d="M25196 59251
L89370 59251
" />
<path d="M25196 47637
L25196 59482
" />
<path d="M89370 47637
L89370 59482
" />
<path d="M89370 59251
L88926 59482
" />
<path d="M89370 59251
L88926 59021
" />
<path d="M25196 59251
L25640 59482
" />
<path d="M25196 59251
L25640 59021
" />
<text x="87696.9" y="17992.1"
textLength="3488.85" font-size="524.934" lengthAdjust="spacingAndGlyphs"
text-anchor="middle" opacity="0">16.500 mm</text>
<path d="M86290 17973
L86065 17973
" />
<path d="M86178 17973
L86178 17579
L86140 17635
L86103 17673
L86065 17692
" />
<path d="M86628 17579
L86553 17579
L86515 17598
L86497 17617
L86459 17673
L86440 17748
L86440 17898
L86459 17935
L86478 17954
L86515 17973
L86590 17973
L86628 17954
L86646 17935
L86665 17898
L86665 17804
L86646 17767
L86628 17748
L86590 17729
L86515 17729
L86478 17748
L86459 17767
L86440 17804
" />
<path d="M86834 17935
L86853 17954
L86834 17973
L86815 17954
L86834 17935
L86834 17973
" />
<path d="M87209 17579
L87021 17579
L87003 17767
L87021 17748
L87059 17729
L87153 17729
L87190 17748
L87209 17767
L87228 17804
L87228 17898
L87209 17935
L87190 17954
L87153 17973
L87059 17973
L87021 17954
L87003 17935
" />
<path d="M87471 17579
L87509 17579
L87546 17598
L87565 17617
L87584 17654
L87603 17729
L87603 17823
L87584 17898
L87565 17935
L87546 17954
L87509 17973
L87471 17973
L87434 17954
L87415 17935
L87396 17898
L87378 17823
L87378 17729
L87396 17654
L87415 17617
L87434 17598
L87471 17579
" />
<path d="M87846 17579
L87884 17579
L87921 17598
L87940 17617
L87959 17654
L87978 17729
L87978 17823
L87959 17898
L87940 17935
L87921 17954
L87884 17973
L87846 17973
L87809 17954
L87790 17935
L87771 17898
L87753 17823
L87753 17729
L87771 17654
L87790 17617
L87809 17598
L87846 17579
" />
<path d="M88446 17973
L88446 17710
" />
<path d="M88446 17748
L88465 17729
L88502 17710
L88559 17710
L88596 17729
L88615 17767
L88615 17973
" />
<path d="M88615 17767
L88634 17729
L88671 17710
L88727 17710
L88765 17729
L88784 17767
L88784 17973
" />
<path d="M88971 17973
L88971 17710
" />
<path d="M88971 17748
L88990 17729
L89027 17710
L89084 17710
L89121 17729
L89140 17767
L89140 17973
" />
<path d="M89140 17767
L89159 17729
L89196 17710
L89252 17710
L89290 17729
L89309 17767
L89309 17973
" />
<path d="M84448 18307
L90944 18307
" />
<path d="M84448 23818
L84448 18076
" />
<path d="M90944 23818
L90944 18076
" />
<path d="M90944 18307
L90501 18537
" />
<path d="M90944 18307
L90501 18076
" />
<path d="M84448 18307
L84892 18537
" />
<path d="M84448 18307
L84892 18076
" />
<text x="79921.3" y="17992.1"
textLength="3488.85" font-size="524.934" lengthAdjust="spacingAndGlyphs"
text-anchor="middle" opacity="0">23.000 mm</text>
<path d="M78290 17617
L78308 17598
L78346 17579
L78440 17579
L78477 17598
L78496 17617
L78515 17654
L78515 17692
L78496 17748
L78271 17973
L78515 17973
" />
<path d="M78646 17579
L78890 17579
L78758 17729
L78815 17729
L78852 17748
L78871 17767
L78890 17804
L78890 17898
L78871 17935
L78852 17954
L78815 17973
L78702 17973
L78665 17954
L78646 17935
" />
<path d="M79058 17935
L79077 17954
L79058 17973
L79040 17954
L79058 17935
L79058 17973
" />
<path d="M79321 17579
L79358 17579
L79396 17598
L79415 17617
L79433 17654
L79452 17729
L79452 17823
L79433 17898
L79415 17935
L79396 17954
L79358 17973
L79321 17973
L79283 17954
L79265 17935
L79246 17898
L79227 17823
L79227 17729
L79246 17654
L79265 17617
L79283 17598
L79321 17579
" />
<path d="M79696 17579
L79733 17579
L79771 17598
L79790 17617
L79808 17654
L79827 17729
L79827 17823
L79808 17898
L79790 17935
L79771 17954
L79733 17973
L79696 17973
L79658 17954
L79640 17935
L79621 17898
L79602 17823
L79602 17729
L79621 17654
L79640 17617
L79658 17598
L79696 17579
" />
<path d="M80071 17579
L80108 17579
L80146 17598
L80164 17617
L80183 17654
L80202 17729
L80202 17823
L80183 17898
L80164 17935
L80146 17954
L80108 17973
L80071 17973
L80033 17954
L80014 17935
L79996 17898
L79977 17823
L79977 17729
L79996 17654
L80014 17617
L80033 17598
L80071 17579
" />
<path d="M80671 17973
L80671 17710
" />
<path d="M80671 17748
L80689 17729
L80727 17710
L80783 17710
L80821 17729
L80839 17767
L80839 17973
" />
<path d="M80839 17767
L80858 17729
L80896 17710
L80952 17710
L80989 17729
L81008 17767
L81008 17973
" />
<path d="M81196 17973
L81196 17710
" />
<path d="M81196 17748
L81214 17729
L81252 17710
L81308 17710
L81346 17729
L81364 17767
L81364 17973
" />
<path d="M81364 17767
L81383 17729
L81421 17710
L81477 17710
L81514 17729
L81533 17767
L81533 17973
" />
<path d="M75393 18307
L84448 18307
" />
<path d="M75393 41141
L75393 18076
" />
<path d="M84448 41141
L84448 18076
" />
<path d="M84448 18307
L84005 18537
" />
<path d="M84448 18307
L84005 18076
" />
<path d="M75393 18307
L75837 18537
" />
<path d="M75393 18307
L75837 18076
" />
<text x="70866.1" y="17992.1"
textLength="3488.85" font-size="524.934" lengthAdjust="spacingAndGlyphs"
text-anchor="middle" opacity="0">23.000 mm</text>
<path d="M69235 17617
L69253 17598
L69291 17579
L69385 17579
L69422 17598
L69441 17617
L69460 17654
L69460 17692
L69441 17748
L69216 17973
L69460 17973
" />
<path d="M69591 17579
L69835 17579
L69703 17729
L69760 17729
L69797 17748
L69816 17767
L69835 17804
L69835 17898
L69816 17935
L69797 17954
L69760 17973
L69647 17973
L69610 17954
L69591 17935
" />
<path d="M70003 17935
L70022 17954
L70003 17973
L69985 17954
L70003 17935
L70003 17973
" />
<path d="M70266 17579
L70303 17579
L70341 17598
L70359 17617
L70378 17654
L70397 17729
L70397 17823
L70378 17898
L70359 17935
L70341 17954
L70303 17973
L70266 17973
L70228 17954
L70209 17935
L70191 17898
L70172 17823
L70172 17729
L70191 17654
L70209 17617
L70228 17598
L70266 17579
" />
<path d="M70641 17579
L70678 17579
L70716 17598
L70734 17617
L70753 17654
L70772 17729
L70772 17823
L70753 17898
L70734 17935
L70716 17954
L70678 17973
L70641 17973
L70603 17954
L70584 17935
L70566 17898
L70547 17823
L70547 17729
L70566 17654
L70584 17617
L70603 17598
L70641 17579
" />
<path d="M71016 17579
L71053 17579
L71091 17598
L71109 17617
L71128 17654
L71147 17729
L71147 17823
L71128 17898
L71109 17935
L71091 17954
L71053 17973
L71016 17973
L70978 17954
L70959 17935
L70941 17898
L70922 17823
L70922 17729
L70941 17654
L70959 17617
L70978 17598
L71016 17579
" />
<path d="M71616 17973
L71616 17710
" />
<path d="M71616 17748
L71634 17729
L71672 17710
L71728 17710
L71766 17729
L71784 17767
L71784 17973
" />
<path d="M71784 17767
L71803 17729
L71841 17710
L71897 17710
L71934 17729
L71953 17767
L71953 17973
" />
<path d="M72140 17973
L72140 17710
" />
<path d="M72140 17748
L72159 17729
L72197 17710
L72253 17710
L72290 17729
L72309 17767
L72309 17973
" />
<path d="M72309 17767
L72328 17729
L72365 17710
L72422 17710
L72459 17729
L72478 17767
L72478 17973
" />
<path d="M66338 18307
L75393 18307
" />
<path d="M66338 41141
L66338 18076
" />
<path d="M75393 41141
L75393 18076
" />
<path d="M75393 18307
L74950 18537
" />
<path d="M75393 18307
L74950 18076
" />
<path d="M66338 18307
L66782 18537
" />
<path d="M66338 18307
L66782 18076
" />
<text x="61811" y="17992.1"
textLength="3488.85" font-size="524.934" lengthAdjust="spacingAndGlyphs"
text-anchor="middle" opacity="0">23.000 mm</text>
<path d="M60179 17617
L60198 17598
L60236 17579
L60329 17579
L60367 17598
L60386 17617
L60404 17654
L60404 17692
L60386 17748
L60161 17973
L60404 17973
" />
<path d="M60536 17579
L60779 17579
L60648 17729
L60704 17729
L60742 17748
L60761 17767
L60779 17804
L60779 17898
L60761 17935
L60742 17954
L60704 17973
L60592 17973
L60554 17954
L60536 17935
" />
<path d="M60948 17935
L60967 17954
L60948 17973
L60929 17954
L60948 17935
L60948 17973
" />
<path d="M61211 17579
L61248 17579
L61286 17598
L61304 17617
L61323 17654
L61342 17729
L61342 17823
L61323 17898
L61304 17935
L61286 17954
L61248 17973
L61211 17973
L61173 17954
L61154 17935
L61136 17898
L61117 17823
L61117 17729
L61136 17654
L61154 17617
L61173 17598
L61211 17579
" />
<path d="M61586 17579
L61623 17579
L61661 17598
L61679 17617
L61698 17654
L61717 17729
L61717 17823
L61698 17898
L61679 17935
L61661 17954
L61623 17973
L61586 17973
L61548 17954
L61529 17935
L61511 17898
L61492 17823
L61492 17729
L61511 17654
L61529 17617
L61548 17598
L61586 17579
" />
<path d="M61961 17579
L61998 17579
L62035 17598
L62054 17617
L62073 17654
L62092 17729
L62092 17823
L62073 17898
L62054 17935
L62035 17954
L61998 17973
L61961 17973
L61923 17954
L61904 17935
L61886 17898
L61867 17823
L61867 17729
L61886 17654
L61904 17617
L61923 17598
L61961 17579
" />
<path d="M62560 17973
L62560 17710
" />
<path d="M62560 17748
L62579 17729
L62617 17710
L62673 17710
L62710 17729
L62729 17767
L62729 17973
" />
<path d="M62729 17767
L62748 17729
L62785 17710
L62842 17710
L62879 17729
L62898 17767
L62898 17973
" />
<path d="M63085 17973
L63085 17710
" />
<path d="M63085 17748
L63104 17729
L63142 17710
L63198 17710
L63235 17729
L63254 17767
L63254 17973
" />
<path d="M63254 17767
L63273 17729
L63310 17710
L63367 17710
L63404 17729
L63423 17767
L63423 17973
" />
<path d="M57283 18307
L66338 18307
" />
<path d="M57283 41141
L57283 18076
" />
<path d="M66338 41141
L66338 18076
" />
<path d="M66338 18307
L65895 18537
" />
<path d="M66338 18307
L65895 18076
" />
<path d="M57283 18307
L57726 18537
" />
<path d="M57283 18307
L57726 18076
" />
<text x="52755.9" y="17992.1"
textLength="3488.85" font-size="524.934" lengthAdjust="spacingAndGlyphs"
text-anchor="middle" opacity="0">23.000 mm</text>
<path d="M51124 17617
L51143 17598
L51181 17579
L51274 17579
L51312 17598
L51331 17617
L51349 17654
L51349 17692
L51331 17748
L51106 17973
L51349 17973
" />
<path d="M51481 17579
L51724 17579
L51593 17729
L51649 17729
L51687 17748
L51706 17767
L51724 17804
L51724 17898
L51706 17935
L51687 17954
L51649 17973
L51537 17973
L51499 17954
L51481 17935
" />
<path d="M51893 17935
L51912 17954
L51893 17973
L51874 17954
L51893 17935
L51893 17973
" />
<path d="M52155 17579
L52193 17579
L52230 17598
L52249 17617
L52268 17654
L52287 17729
L52287 17823
L52268 17898
L52249 17935
L52230 17954
L52193 17973
L52155 17973
L52118 17954
L52099 17935
L52080 17898
L52062 17823
L52062 17729
L52080 17654
L52099 17617
L52118 17598
L52155 17579
" />
<path d="M52530 17579
L52568 17579
L52605 17598
L52624 17617
L52643 17654
L52662 17729
L52662 17823
L52643 17898
L52624 17935
L52605 17954
L52568 17973
L52530 17973
L52493 17954
L52474 17935
L52455 17898
L52437 17823
L52437 17729
L52455 17654
L52474 17617
L52493 17598
L52530 17579
" />
<path d="M52905 17579
L52943 17579
L52980 17598
L52999 17617
L53018 17654
L53037 17729
L53037 17823
L53018 17898
L52999 17935
L52980 17954
L52943 17973
L52905 17973
L52868 17954
L52849 17935
L52830 17898
L52812 17823
L52812 17729
L52830 17654
L52849 17617
L52868 17598
L52905 17579
" />
<path d="M53505 17973
L53505 17710
" />
<path d="M53505 17748
L53524 17729
L53562 17710
L53618 17710
L53655 17729
L53674 17767
L53674 17973
" />
<path d="M53674 17767
L53693 17729
L53730 17710
L53787 17710
L53824 17729
L53843 17767
L53843 17973
" />
<path d="M54030 17973
L54030 17710
" />
<path d="M54030 17748
L54049 17729
L54086 17710
L54143 17710
L54180 17729
L54199 17767
L54199 17973
" />
<path d="M54199 17767
L54218 17729
L54255 17710
L54311 17710
L54349 17729
L54368 17767
L54368 17973
" />
<path d="M48228 18307
L57283 18307
" />
<path d="M48228 41141
L48228 18076
" />
<path d="M57283 41141
L57283 18076
" />
<path d="M57283 18307
L56839 18537
" />
<path d="M57283 18307
L56839 18076
" />
<path d="M48228 18307
L48671 18537
" />
<path d="M48228 18307
L48671 18076
" />
<text x="43700.8" y="17992.1"
textLength="3488.85" font-size="524.934" lengthAdjust="spacingAndGlyphs"
text-anchor="middle" opacity="0">23.000 mm</text>
<path d="M42069 17617
L42088 17598
L42125 17579
L42219 17579
L42257 17598
L42275 17617
L42294 17654
L42294 17692
L42275 17748
L42050 17973
L42294 17973
" />
<path d="M42425 17579
L42669 17579
L42538 17729
L42594 17729
L42632 17748
L42650 17767
L42669 17804
L42669 17898
L42650 17935
L42632 17954
L42594 17973
L42482 17973
L42444 17954
L42425 17935
" />
<path d="M42838 17935
L42857 17954
L42838 17973
L42819 17954
L42838 17935
L42838 17973
" />
<path d="M43100 17579
L43138 17579
L43175 17598
L43194 17617
L43213 17654
L43232 17729
L43232 17823
L43213 17898
L43194 17935
L43175 17954
L43138 17973
L43100 17973
L43063 17954
L43044 17935
L43025 17898
L43007 17823
L43007 17729
L43025 17654
L43044 17617
L43063 17598
L43100 17579
" />
<path d="M43475 17579
L43513 17579
L43550 17598
L43569 17617
L43588 17654
L43607 17729
L43607 17823
L43588 17898
L43569 17935
L43550 17954
L43513 17973
L43475 17973
L43438 17954
L43419 17935
L43400 17898
L43382 17823
L43382 17729
L43400 17654
L43419 17617
L43438 17598
L43475 17579
" />
<path d="M43850 17579
L43888 17579
L43925 17598
L43944 17617
L43963 17654
L43982 17729
L43982 17823
L43963 17898
L43944 17935
L43925 17954
L43888 17973
L43850 17973
L43813 17954
L43794 17935
L43775 17898
L43757 17823
L43757 17729
L43775 17654
L43794 17617
L43813 17598
L43850 17579
" />
<path d="M44450 17973
L44450 17710
" />
<path d="M44450 17748
L44469 17729
L44506 17710
L44563 17710
L44600 17729
L44619 17767
L44619 17973
" />
<path d="M44619 17767
L44638 17729
L44675 17710
L44731 17710
L44769 17729
L44788 17767
L44788 17973
" />
<path d="M44975 17973
L44975 17710
" />
<path d="M44975 17748
L44994 17729
L45031 17710
L45088 17710
L45125 17729
L45144 17767
L45144 17973
" />
<path d="M45144 17767
L45163 17729
L45200 17710
L45256 17710
L45294 17729
L45313 17767
L45313 17973
" />
<path d="M39173 18307
L48228 18307
" />
<path d="M39173 41141
L39173 18076
" />
<path d="M48228 41141
L48228 18076
" />
<path d="M48228 18307
L47784 18537
" />
<path d="M48228 18307
L47784 18076
" />
<path d="M39173 18307
L39616 18537
" />
<path d="M39173 18307
L39616 18076
" />
<text x="34645.7" y="17992.1"
textLength="3488.85" font-size="524.934" lengthAdjust="spacingAndGlyphs"
text-anchor="middle" opacity="0">23.000 mm</text>
<path d="M33014 17617
L33033 17598
L33070 17579
L33164 17579
L33202 17598
L33220 17617
L33239 17654
L33239 17692
L33220 17748
L32995 17973
L33239 17973
" />
<path d="M33370 17579
L33614 17579
L33483 17729
L33539 17729
L33577 17748
L33595 17767
L33614 17804
L33614 17898
L33595 17935
L33577 17954
L33539 17973
L33427 17973
L33389 17954
L33370 17935
" />
<path d="M33783 17935
L33802 17954
L33783 17973
L33764 17954
L33783 17935
L33783 17973
" />
<path d="M34045 17579
L34083 17579
L34120 17598
L34139 17617
L34158 17654
L34176 17729
L34176 17823
L34158 17898
L34139 17935
L34120 17954
L34083 17973
L34045 17973
L34008 17954
L33989 17935
L33970 17898
L33952 17823
L33952 17729
L33970 17654
L33989 17617
L34008 17598
L34045 17579
" />
<path d="M34420 17579
L34458 17579
L34495 17598
L34514 17617
L34533 17654
L34551 17729
L34551 17823
L34533 17898
L34514 17935
L34495 17954
L34458 17973
L34420 17973
L34383 17954
L34364 17935
L34345 17898
L34326 17823
L34326 17729
L34345 17654
L34364 17617
L34383 17598
L34420 17579
" />
<path d="M34795 17579
L34833 17579
L34870 17598
L34889 17617
L34908 17654
L34926 17729
L34926 17823
L34908 17898
L34889 17935
L34870 17954
L34833 17973
L34795 17973
L34758 17954
L34739 17935
L34720 17898
L34701 17823
L34701 17729
L34720 17654
L34739 17617
L34758 17598
L34795 17579
" />
<path d="M35395 17973
L35395 17710
" />
<path d="M35395 17748
L35414 17729
L35451 17710
L35508 17710
L35545 17729
L35564 17767
L35564 17973
" />
<path d="M35564 17767
L35583 17729
L35620 17710
L35676 17710
L35714 17729
L35733 17767
L35733 17973
" />
<path d="M35920 17973
L35920 17710
" />
<path d="M35920 17748
L35939 17729
L35976 17710
L36032 17710
L36070 17729
L36089 17767
L36089 17973
" />
<path d="M36089 17767
L36107 17729
L36145 17710
L36201 17710
L36239 17729
L36257 17767
L36257 17973
" />
<path d="M30118 18307
L39173 18307
" />
<path d="M30118 41141
L30118 18076
" />
<path d="M39173 41141
L39173 18076
" />
<path d="M39173 18307
L38729 18537
" />
<path d="M39173 18307
L38729 18076
" />
<path d="M30118 18307
L30561 18537
" />
<path d="M30118 18307
L30561 18076
" />
<text x="26870.1" y="17992.1"
textLength="3488.85" font-size="524.934" lengthAdjust="spacingAndGlyphs"
text-anchor="middle" opacity="0">16.500 mm</text>
<path d="M25464 17973
L25239 17973
" />
<path d="M25351 17973
L25351 17579
L25314 17635
L25276 17673
L25239 17692
" />
<path d="M25801 17579
L25726 17579
L25688 17598
L25670 17617
L25632 17673
L25613 17748
L25613 17898
L25632 17935
L25651 17954
L25688 17973
L25763 17973
L25801 17954
L25820 17935
L25838 17898
L25838 17804
L25820 17767
L25801 17748
L25763 17729
L25688 17729
L25651 17748
L25632 17767
L25613 17804
" />
<path d="M26007 17935
L26026 17954
L26007 17973
L25988 17954
L26007 17935
L26007 17973
" />
<path d="M26382 17579
L26195 17579
L26176 17767
L26195 17748
L26232 17729
L26326 17729
L26363 17748
L26382 17767
L26401 17804
L26401 17898
L26382 17935
L26363 17954
L26326 17973
L26232 17973
L26195 17954
L26176 17935
" />
<path d="M26645 17579
L26682 17579
L26720 17598
L26738 17617
L26757 17654
L26776 17729
L26776 17823
L26757 17898
L26738 17935
L26720 17954
L26682 17973
L26645 17973
L26607 17954
L26588 17935
L26570 17898
L26551 17823
L26551 17729
L26570 17654
L26588 17617
L26607 17598
L26645 17579
" />
<path d="M27020 17579
L27057 17579
L27095 17598
L27113 17617
L27132 17654
L27151 17729
L27151 17823
L27132 17898
L27113 17935
L27095 17954
L27057 17973
L27020 17973
L26982 17954
L26963 17935
L26945 17898
L26926 17823
L26926 17729
L26945 17654
L26963 17617
L26982 17598
L27020 17579
" />
<path d="M27619 17973
L27619 17710
" />
<path d="M27619 17748
L27638 17729
L27676 17710
L27732 17710
L27769 17729
L27788 17767
L27788 17973
" />
<path d="M27788 17767
L27807 17729
L27844 17710
L27901 17710
L27938 17729
L27957 17767
L27957 17973
" />
<path d="M28144 17973
L28144 17710
" />
<path d="M28144 17748
L28163 17729
L28201 17710
L28257 17710
L28294 17729
L28313 17767
L28313 17973
" />
<path d="M28313 17767
L28332 17729
L28369 17710
L28426 17710
L28463 17729
L28482 17767
L28482 17973
" />
<path d="M23622 18307
L30118 18307
" />
<path d="M23622 30905
L23622 18076
" />
<path d="M30118 30905
L30118 18076
" />
<path d="M30118 18307
L29674 18537
" />
<path d="M30118 18307
L29674 18076
" />
<path d="M23622 18307
L24065 18537
" />
<path d="M23622 18307
L24065 18076
" />
<g transform="rotate(-270 93622 35629.9)">
<text x="93622" y="35826.8"
textLength="3488.85" font-size="524.934" lengthAdjust="spacingAndGlyphs"
text-anchor="middle" opacity="0">15.000 mm</text>
</g>
<path d="M93443 34223
L93443 33998
" />
<path d="M93443 34111
L93837 34111
L93781 34073
L93743 34036
L93725 33998
" />
<path d="M93837 34580
L93837 34392
L93650 34373
L93668 34392
L93687 34430
L93687 34523
L93668 34561
L93650 34580
L93612 34598
L93518 34598
L93481 34580
L93462 34561
L93443 34523
L93443 34430
L93462 34392
L93481 34373
" />
<path d="M93481 34767
L93462 34786
L93443 34767
L93462 34748
L93481 34767
L93443 34767
" />
<path d="M93837 35029
L93837 35067
L93818 35104
L93800 35123
L93762 35142
L93687 35161
L93593 35161
L93518 35142
L93481 35123
L93462 35104
L93443 35067
L93443 35029
L93462 34992
L93481 34973
L93518 34955
L93593 34936
L93687 34936
L93762 34955
L93800 34973
L93818 34992
L93837 35029
" />
<path d="M93837 35404
L93837 35442
L93818 35479
L93800 35498
L93762 35517
L93687 35536
L93593 35536
L93518 35517
L93481 35498
L93462 35479
L93443 35442
L93443 35404
L93462 35367
L93481 35348
L93518 35329
L93593 35311
L93687 35311
L93762 35329
L93800 35348
L93818 35367
L93837 35404
" />
<path d="M93837 35779
L93837 35817
L93818 35854
L93800 35873
L93762 35892
L93687 35911
L93593 35911
L93518 35892
L93481 35873
L93462 35854
L93443 35817
L93443 35779
L93462 35742
L93481 35723
L93518 35704
L93593 35686
L93687 35686
L93762 35704
L93800 35723
L93818 35742
L93837 35779
" />
<path d="M93443 36379
L93706 36379
" />
<path d="M93668 36379
L93687 36398
L93706 36436
L93706 36492
L93687 36529
L93650 36548
L93443 36548
" />
<path d="M93650 36548
L93687 36567
L93706 36604
L93706 36661
L93687 36698
L93650 36717
L93443 36717
" />
<path d="M93443 36904
L93706 36904
" />
<path d="M93668 36904
L93687 36923
L93706 36961
L93706 37017
L93687 37054
L93650 37073
L93443 37073
" />
<path d="M93650 37073
L93687 37092
L93706 37129
L93706 37185
L93687 37223
L93650 37242
L93443 37242
" />
<path d="M93110 32677
L93110 38582
" />
<path d="M30118 32677
L93341 32677
" />
<path d="M30118 38582
L93341 38582
" />
<path d="M93110 38582
L92879 38139
" />
<path d="M93110 38582
L93341 38139
" />
<path d="M93110 32677
L92879 33120
" />
<path d="M93110 32677
L93341 33120
" />
<g transform="rotate(-270 93622 23228.3)">
<text x="93622" y="23425.2"
textLength="3488.85" font-size="524.934" lengthAdjust="spacingAndGlyphs"
text-anchor="middle" opacity="0">18.000 mm</text>
</g>
<path d="M93443 21822
L93443 21597
" />
<path d="M93443 21709
L93837 21709
L93781 21672
L93743 21634
L93725 21597
" />
<path d="M93668 22047
L93687 22009
L93706 21991
L93743 21972
L93762 21972
L93800 21991
L93818 22009
L93837 22047
L93837 22122
L93818 22159
L93800 22178
L93762 22197
L93743 22197
L93706 22178
L93687 22159
L93668 22122
L93668 22047
L93650 22009
L93631 21991
L93593 21972
L93518 21972
L93481 21991
L93462 22009
L93443 22047
L93443 22122
L93462 22159
L93481 22178
L93518 22197
L93593 22197
L93631 22178
L93650 22159
L93668 22122
" />
<path d="M93481 22365
L93462 22384
L93443 22365
L93462 22347
L93481 22365
L93443 22365
" />
<path d="M93837 22628
L93837 22665
L93818 22703
L93800 22722
L93762 22740
L93687 22759
L93593 22759
L93518 22740
L93481 22722
L93462 22703
L93443 22665
L93443 22628
L93462 22590
L93481 22572
L93518 22553
L93593 22534
L93687 22534
L93762 22553
L93800 22572
L93818 22590
L93837 22628
" />
<path d="M93837 23003
L93837 23040
L93818 23078
L93800 23097
L93762 23115
L93687 23134
L93593 23134
L93518 23115
L93481 23097
L93462 23078
L93443 23040
L93443 23003
L93462 22965
L93481 22947
L93518 22928
L93593 22909
L93687 22909
L93762 22928
L93800 22947
L93818 22965
L93837 23003
" />
<path d="M93837 23378
L93837 23415
L93818 23453
L93800 23472
L93762 23490
L93687 23509
L93593 23509
L93518 23490
L93481 23472
L93462 23453
L93443 23415
L93443 23378
L93462 23340
L93481 23322
L93518 23303
L93593 23284
L93687 23284
L93762 23303
L93800 23322
L93818 23340
L93837 23378
" />
<path d="M93443 23978
L93706 23978
" />
<path d="M93668 23978
L93687 23997
L93706 24034
L93706 24090
L93687 24128
L93650 24146
L93443 24146
" />
<path d="M93650 24146
L93687 24165
L93706 24203
L93706 24259
L93687 24296
L93650 24315
L93443 24315
" />
<path d="M93443 24503
L93706 24503
" />
<path d="M93668 24503
L93687 24521
L93706 24559
L93706 24615
L93687 24653
L93650 24671
L93443 24671
" />
<path d="M93650 24671
L93687 24690
L93706 24728
L93706 24784
L93687 24821
L93650 24840
L93443 24840
" />
<path d="M93110 19685
L93110 26771
" />
<path d="M30708 19685
L93341 19685
" />
<path d="M30708 26771
L93341 26771
" />
<path d="M93110 26771
L92879 26328
" />
<path d="M93110 26771
L93341 26328
" />
<path d="M93110 19685
L92879 20128
" />
<path d="M93110 19685
L93341 20128
" />
<g transform="rotate(-270 16417.3 35433.1)">
<text x="16417.3" y="35629.9"
textLength="3488.85" font-size="524.934" lengthAdjust="spacingAndGlyphs"
text-anchor="middle" opacity="0">80.000 mm</text>
</g>
<path d="M16464 33877
L16482 33839
L16501 33820
L16539 33802
L16557 33802
L16595 33820
L16614 33839
L16632 33877
L16632 33952
L16614 33989
L16595 34008
L16557 34026
L16539 34026
L16501 34008
L16482 33989
L16464 33952
L16464 33877
L16445 33839
L16426 33820
L16389 33802
L16314 33802
L16276 33820
L16257 33839
L16239 33877
L16239 33952
L16257 33989
L16276 34008
L16314 34026
L16389 34026
L16426 34008
L16445 33989
L16464 33952
" />
<path d="M16632 34270
L16632 34308
L16614 34345
L16595 34364
L16557 34383
L16482 34401
L16389 34401
L16314 34383
L16276 34364
L16257 34345
L16239 34308
L16239 34270
L16257 34233
L16276 34214
L16314 34195
L16389 34176
L16482 34176
L16557 34195
L16595 34214
L16614 34233
L16632 34270
" />
<path d="M16276 34570
L16257 34589
L16239 34570
L16257 34551
L16276 34570
L16239 34570
" />
<path d="M16632 34833
L16632 34870
L16614 34908
L16595 34926
L16557 34945
L16482 34964
L16389 34964
L16314 34945
L16276 34926
L16257 34908
L16239 34870
L16239 34833
L16257 34795
L16276 34776
L16314 34758
L16389 34739
L16482 34739
L16557 34758
L16595 34776
L16614 34795
L16632 34833
" />
<path d="M16632 35208
L16632 35245
L16614 35283
L16595 35301
L16557 35320
L16482 35339
L16389 35339
L16314 35320
L16276 35301
L16257 35283
L16239 35245
L16239 35208
L16257 35170
L16276 35151
L16314 35133
L16389 35114
L16482 35114
L16557 35133
L16595 35151
L16614 35170
L16632 35208
" />
<path d="M16632 35583
L16632 35620
L16614 35658
L16595 35676
L16557 35695
L16482 35714
L16389 35714
L16314 35695
L16276 35676
L16257 35658
L16239 35620
L16239 35583
L16257 35545
L16276 35526
L16314 35508
L16389 35489
L16482 35489
L16557 35508
L16595 35526
L16614 35545
L16632 35583
" />
<path d="M16239 36182
L16501 36182
" />
<path d="M16464 36182
L16482 36201
L16501 36239
L16501 36295
L16482 36332
L16445 36351
L16239 36351
" />
<path d="M16445 36351
L16482 36370
L16501 36407
L16501 36464
L16482 36501
L16445 36520
L16239 36520
" />
<path d="M16239 36707
L16501 36707
" />
<path d="M16464 36707
L16482 36726
L16501 36764
L16501 36820
L16482 36857
L16445 36876
L16239 36876
" />
<path d="M16445 36876
L16482 36895
L16501 36932
L16501 36989
L16482 37026
L16445 37045
L16239 37045
" />
<path d="M16929 19685
L16929 51181
" />
<path d="M23622 19685
L16698 19685
" />
<path d="M23622 51181
L16698 51181
" />
<path d="M16929 51181
L16698 50737
" />
<path d="M16929 51181
L17160 50737
" />
<path d="M16929 19685
L16698 20128
" />
<path d="M16929 19685
L17160 20128
" />
<g transform="rotate(-270 18189 35629.9)">
<text x="18189" y="35826.8"
textLength="3488.85" font-size="524.934" lengthAdjust="spacingAndGlyphs"
text-anchor="middle" opacity="0">71.000 mm</text>
</g>
<path d="M18404 33980
L18404 34242
L18010 34073
" />
<path d="M18010 34598
L18010 34373
" />
<path d="M18010 34486
L18404 34486
L18348 34448
L18310 34411
L18292 34373
" />
<path d="M18048 34767
L18029 34786
L18010 34767
L18029 34748
L18048 34767
L18010 34767
" />
<path d="M18404 35029
L18404 35067
L18385 35104
L18367 35123
L18329 35142
L18254 35161
L18160 35161
L18085 35142
L18048 35123
L18029 35104
L18010 35067
L18010 35029
L18029 34992
L18048 34973
L18085 34955
L18160 34936
L18254 34936
L18329 34955
L18367 34973
L18385 34992
L18404 35029
" />
<path d="M18404 35404
L18404 35442
L18385 35479
L18367 35498
L18329 35517
L18254 35536
L18160 35536
L18085 35517
L18048 35498
L18029 35479
L18010 35442
L18010 35404
L18029 35367
L18048 35348
L18085 35329
L18160 35311
L18254 35311
L18329 35329
L18367 35348
L18385 35367
L18404 35404
" />
<path d="M18404 35779
L18404 35817
L18385 35854
L18367 35873
L18329 35892
L18254 35911
L18160 35911
L18085 35892
L18048 35873
L18029 35854
L18010 35817
L18010 35779
L18029 35742
L18048 35723
L18085 35704
L18160 35686
L18254 35686
L18329 35704
L18367 35723
L18385 35742
L18404 35779
" />
<path d="M18010 36379
L18273 36379
" />
<path d="M18235 36379
L18254 36398
L18273 36436
L18273 36492
L18254 36529
L18217 36548
L18010 36548
" />
<path d="M18217 36548
L18254 36567
L18273 36604
L18273 36661
L18254 36698
L18217 36717
L18010 36717
" />
<path d="M18010 36904
L18273 36904
" />
<path d="M18235 36904
L18254 36923
L18273 36961
L18273 37017
L18254 37054
L18217 37073
L18010 37073
" />
<path d="M18217 37073
L18254 37092
L18273 37129
L18273 37185
L18254 37223
L18217 37242
L18010 37242
" />
<path d="M18700 21653
L18700 49606
" />
<path d="M34645 21653
L18469 21653
" />
<path d="M34645 49606
L18469 49606
" />
<path d="M18700 49606
L18469 49162
" />
<path d="M18700 49606
L18931 49162
" />
<path d="M18700 21653
L18469 22097
" />
<path d="M18700 21653
L18931 22097
" />
<g >
</g>
<g >
</g>
<g >
</g>
<g >
</g>
<g >
</g>
<g >
</g>
<g >
</g>
<g >
</g>
<g >
</g>
<g >
</g>
<g >
</g>
<g >
</g>
<g >
</g>
<g >
</g>
<g >
</g>
<g >
</g>
<g >
</g>
<g >
</g>
<g >
</g>
<g >
</g>
<g >
</g>
<g >
</g>
<g >
</g>
<g >
</g>
<g >
</g>
<g >
</g>
<g >
</g>
<g >
</g>
<g >
</g>
<g >
</g>
<g >
</g>
<g >
</g>
<g >
</g>
<g >
</g>
<g >
</g>
<g >
</g>
<g >
</g>
<g >
</g>
<g >
</g>
<g >
</g>
<g >
</g>
<g >
</g>
<g >
</g>
<g >
</g>
<g >
</g>
<g >
</g>
<g >
</g>
<g >
</g>
<g >
</g>
<g >
</g>
<g >
</g>
<g >
</g>
<g >
</g>
<g >
</g>
<g >
</g>
<g >
</g>
<g >
</g>
<g >
</g>
<g >
</g>
<g >
</g>
<g >
</g>
<g >
</g>
<g >
</g>
<g >
</g>
<g >
</g>
<g >
</g>
<g >
</g>
<g >
</g>
<g >
</g>
<g >
</g>
<g >
</g>
<g >
</g>
<g >
</g>
<g >
</g>
<g >
</g>
<g >
</g>
<g >
</g>
<g >
</g>
<g >
</g>
<g >
</g>
<g >
</g>
<g >
</g>
<g >
</g>
<g >
</g>
<g >
</g>
<g >
</g>
<g >
</g>
<g >
</g>
<g >
</g>
<g >
</g>
<g >
</g>
<g >
</g>
<g >
</g>
<g >
</g>
<g >
</g>
<g >
</g>
<g >
</g>
<g >
</g>
<g >
</g>
<g >
</g>
<g >
</g>
<g >
</g>
<g >
</g>
<g >
</g>
<g >
</g>
<g >
</g>
<g >
</g>
<g >
</g>
<g >
</g>
<g >
</g>
</g>
<g style="fill:#000000; fill-opacity:0.0; 
stroke:#000000; stroke-width:59.0551; stroke-opacity:1; 
stroke-linecap:round; stroke-linejoin:round;">
</g>
<g style="fill:#000000; fill-opacity:0.0; 
stroke:#000000; stroke-width:39.3701; stroke-opacity:1; 
stroke-linecap:round; stroke-linejoin:round;">
<path d="M87401.6 19685 A3543.31 3543.31 0.0 0 0 90944.9 23228.3" />
<path d="M23622 23228.3 A3543.31 3543.31 0.0 0 0 27165.4 19685" />
<path d="M87401 19685
L27165 19685
" />
<path d="M90944 51181
L90944 23228
" />
<path d="M23622 51181
L90944 51181
" />
<path d="M23622 23228
L23622 51181
" />
<g >
</g>
<g >
</g>
<g >
</g>
<g >
</g>
<g >
</g>
<g >
</g>
<g >
</g>
<g >
</g>
<g >
</g>
<g >
</g>
<g >
</g>
<g >
</g>
<g >
</g>
<g >
</g>
<g >
</g>
<g >
</g>
<g >
</g>
<g >
</g>
<g >
</g>
<g >
</g>
<g >
</g>
<g >
</g>
<g >
</g>
<g >
</g>
<g >
</g>
<g >
</g>
<g >
</g>
<g >
</g>
<g >
</g>
<g >
</g>
<g >
</g>
<g >
</g>
<g >
</g>
<g >
</g>
<g >
</g>
<g >
</g>
<g >
</g>
<g >
</g>
<g >
</g>
<g >
</g>
<g >
</g>
<g >
</g>
<g >
</g>
<g >
</g>
<g >
</g>
<g >
</g>
<g >
</g>
<g >
</g>
<g >
</g>
<g >
</g>
<g >
</g>
<g >
</g>
<g >
</g>
<g >
</g>
<g >
</g>
<g >
</g>
<g >
</g>
<g >
</g>
<g >
</g>
<g >
</g>
<g >
</g>
<g >
</g>
<g >
</g>
<g >
</g>
<g >
</g>
<g >
</g>
<g >
</g>
<g >
</g>
<g >
</g>
<g >
</g>
<g >
</g>
<g >
</g>
<g >
</g>
<g >
</g>
<g >
</g>
<g >
</g>
<g >
</g>
<g >
</g>
<g >
</g>
<g >
</g>
<g >
</g>
<g >
</g>
<g >
</g>
<g >
</g>
<g >
</g>
<g >
</g>
<g >
</g>
<g >
</g>
<g >
</g>
<g >
</g>
<g >
</g>
<g >
</g>
<g >
</g>
<g >
</g>
<g >
</g>
<g >
</g>
<g >
</g>
<g >
</g>
<g >
</g>
<g >
</g>
<g >
</g>
<g >
</g>
<g >
</g>
<g >
</g>
<g >
</g>
<g >
</g>
<g >
</g>
<g >
</g>
<g >
</g>
<g >
</g>
</g> 
</svg>
